Coordinates
version=1
nRows=13
nColumns=34
inDegrees=yes

Units are S.I. units (second, meters, Newtons, ...)
Angles are in degrees.

endheader
time	pelvis_tilt	pelvis_list	pelvis_rotation	pelvis_tx	pelvis_ty	pelvis_tz	hip_flexion_r	hip_adduction_r	hip_rotation_r	knee_angle_r	ankle_angle_r	subtalar_angle_r	mtp_angle_r	hip_flexion_l	hip_adduction_l	hip_rotation_l	knee_angle_l	socket_flexion	socket_adduction	socket_rotation	socket_tx	socket_ty	socket_tz	pros_ankle_rx	pros_ankle_ry	pros_ankle_rz	pros_ankle_tx	pros_ankle_ty	pros_ankle_tz	foot_flex	lumbar_extension	lumbar_bending	lumbar_rotation
      0.29583333	      1.32726344	     -3.64144083	      1.21069378	     -0.36646898	      1.04997458	      0.36848998	      9.36410518	     -0.53112057	    -10.56901773	    -62.34690438	     -0.32711593	      5.63711924	     15.25027065	      9.96214180	     -4.03043959	     -1.83791757	    -25.05873858	     -3.67474987	      0.00000000	      0.00000000	      0.00000000	      0.00000000	      0.00000000	      0.00000000	      0.00000000	      0.00000000	      0.00000000	      0.00000000	      0.00000000	      5.97233351	    -22.34143154	     -6.98633151	     -0.07472337
      0.30000000	      1.80296924	     -3.43278061	      1.20372194	     -0.36049767	      1.05177061	      0.36834273	      9.30280603	     -0.88369022	    -10.74763548	    -62.10219275	      0.69124520	      6.51630404	     15.20735114	      8.54829179	     -3.79723979	     -1.92143938	    -23.72000622	     -3.01279039	      0.00000000	      0.00000000	      0.00000000	      0.00000000	      0.00000000	      0.00000000	      0.00000000	      0.00000000	      0.00000000	      0.00000000	      0.00000000	      6.14559767	    -22.86040032	     -7.20099238	     -0.35364055
      0.30416667	      1.87284581	     -3.59595865	      1.25430402	     -0.35502263	      1.05261027	      0.36806484	      9.73664379	     -0.70231984	    -10.83917433	    -61.80097658	      1.41399434	      6.38750610	     15.26152758	      8.04335980	     -3.96176776	     -1.88246927	    -23.53584858	     -3.01372413	      0.00000000	      0.00000000	      0.00000000	      0.00000000	      0.00000000	      0.00000000	      0.00000000	      0.00000000	      0.00000000	      0.00000000	      0.00000000	      6.32710910	    -22.84231622	     -6.94218238	     -0.35815056
      0.30833333	      1.91544530	     -3.74379243	      1.29249698	     -0.34952465	      1.05339638	      0.36779456	     10.18821366	     -0.56655067	    -10.96636916	    -61.44733027	      2.05920301	      6.35937128	     15.30682831	      7.56594050	     -4.11096172	     -1.87673771	    -23.35033287	     -3.01161879	      0.00000000	      0.00000000	      0.00000000	      0.00000000	      0.00000000	      0.00000000	      0.00000000	      0.00000000	      0.00000000	      0.00000000	      0.00000000	      6.45773490	    -22.84894158	     -6.75354758	     -0.40018880
      0.31250000	      1.98396878	     -3.89763967	      1.34471427	     -0.34408574	      1.05423275	      0.36752583	     10.60294319	     -0.39369463	    -11.06156259	    -61.05027276	      2.86661178	      6.39921850	     15.35689746	      7.03336150	     -4.26525580	     -1.82028263	    -23.07346779	     -2.95409967	      0.00000000	      0.00000000	      0.00000000	      0.00000000	      0.00000000	      0.00000000	      0.00000000	      0.00000000	      0.00000000	      0.00000000	      0.00000000	      6.60806195	    -22.82926522	     -6.48332829	     -0.46537886
      0.31666667	      2.58685549	     -3.73358130	      1.24725352	     -0.33817514	      1.05636765	      0.36757659	     10.33809791	     -0.59464931	    -11.07330538	    -60.51977632	      3.72741778	      7.00622034	     14.90749022	      5.31950572	     -4.08780950	     -1.96560671	    -21.28475370	     -2.02632640	      0.00000000	      0.00000000	      0.00000000	      0.00000000	      0.00000000	      0.00000000	      0.00000000	      0.00000000	      0.00000000	      0.00000000	      0.00000000	      6.73332600	    -23.44144238	     -6.63687820	     -0.54885477
      0.32083333	      2.58818438	     -3.89975575	      1.31436376	     -0.33275231	      1.05702295	      0.36725004	     10.79349164	     -0.41317968	    -11.19707885	    -60.02335760	      4.38921220	      7.03998735	     14.93736789	      4.89982822	     -4.25110631	     -1.90675855	    -21.10326924	     -2.02663920	      0.00000000	      0.00000000	      0.00000000	      0.00000000	      0.00000000	      0.00000000	      0.00000000	      0.00000000	      0.00000000	      0.00000000	      0.00000000	      6.88254796	    -23.40306565	     -6.34039766	     -0.60317230
      0.32500000	      2.61002123	     -4.08857961	      1.37708184	     -0.32730693	      1.05770275	      0.36699327	     11.21606323	     -0.22817182	    -11.38338117	    -59.48192420	      5.00030642	      7.08647089	     14.95511342	      4.45132786	     -4.45194937	     -1.88762671	    -20.91117256	     -2.01881883	      0.00000000	      0.00000000	      0.00000000	      0.00000000	      0.00000000	      0.00000000	      0.00000000	      0.00000000	      0.00000000	      0.00000000	      0.00000000	      7.02593796	    -23.34564992	     -6.12739065	     -0.65993089
      0.32916667	      2.65988888	     -4.25943786	      1.43399645	     -0.32190691	      1.05845902	      0.36670079	     11.58194525	     -0.04319978	    -11.52318677	    -58.86507165	      5.68004110	      7.23822491	     14.92876320	      3.92926892	     -4.62398770	     -1.80857368	    -20.58119845	     -1.90936936	      0.00000000	      0.00000000	      0.00000000	      0.00000000	      0.00000000	      0.00000000	      0.00000000	      0.00000000	      0.00000000	      0.00000000	      0.00000000	      7.14597079	    -23.31740055	     -5.78409940	     -0.74924675
      0.33333333	      2.67205939	     -4.38683330	      1.49574725	     -0.31648248	      1.05908919	      0.36644638	     11.97959178	      0.06445973	    -11.71862810	    -58.22268671	      6.10713513	      7.29789393	     14.90479161	      3.49514733	     -4.75658144	     -1.84736996	    -20.38992157	     -1.91706171	      0.00000000	      0.00000000	      0.00000000	      0.00000000	      0.00000000	      0.00000000	      0.00000000	      0.00000000	      0.00000000	      0.00000000	      0.00000000	      7.24057469	    -23.33641142	     -5.67189382	     -0.79893557
      0.33750000	      2.75209162	     -4.58507350	      1.56719876	     -0.31101851	      1.05991985	      0.36612049	     12.25662694	      0.29850652	    -11.86180401	    -57.47981264	      6.81371519	      7.48267926	     14.81720142	      2.88817446	     -4.95782179	     -1.73816249	    -19.91256110	     -1.72891277	      0.00000000	      0.00000000	      0.00000000	      0.00000000	      0.00000000	      0.00000000	      0.00000000	      0.00000000	      0.00000000	      0.00000000	      0.00000000	      7.38034710	    -23.29789620	     -5.25434463	     -0.89413882
      0.34166667	      3.47888057	     -4.44627086	      1.46850641	     -0.30500555	      1.06212756	      0.36612745	     11.73252329	      0.10945411	    -11.97877746	    -56.63995493	      7.46363797	      8.15094062	     13.60326314	      0.87722400	     -4.79878563	     -1.91206751	    -17.66135303	     -0.50593527	      0.00000000	      0.00000000	      0.00000000	      0.00000000	      0.00000000	      0.00000000	      0.00000000	      0.00000000	      0.00000000	      0.00000000	      0.00000000	      7.50720165	    -24.10461210	     -5.41207344	     -0.99463090
      0.34583333	      3.45087010	     -4.58730392	      1.51696785	     -0.29968552	      1.06258606	      0.36594018	     12.14408198	      0.26639219	    -12.14670623	    -55.88248200	      7.84206484	      8.13818470	     13.58591988	      0.52478067	     -4.94831737	     -1.93706683	    -17.56275600	     -0.55225521	      0.00000000	      0.00000000	      0.00000000	      0.00000000	      0.00000000	      0.00000000	      0.00000000	      0.00000000	      0.00000000	      0.00000000	      0.00000000	      7.58737099	    -24.06609031	     -5.28465305	     -0.99890041
